<svg version="1.1" id="Layer_1" xmlns="http://www.w3.org/2000/svg" xmlns:xlink="http://www.w3.org/1999/xlink" x="0px" y="0px" viewBox="0 0 120 120" style="enable-background:new 0 0 120 120;" xml:space="preserve"> <style type="text/css"> .st0{fill:url(#SVGID_1_);} .st1{fill:url(#SVGID_2_);} .st2{fill:url(#SVGID_3_);} .st3{fill:url(#SVGID_4_);} .st4{fill:url(#SVGID_5_);} .st5{fill:url(#SVGID_6_);} .st6{fill:url(#SVGID_7_);} .st7{fill:url(#SVGID_8_);} .st8{fill:url(#SVGID_9_);} .st9{fill:url(#SVGID_10_);} .st10{fill:url(#SVGID_11_);} .st11{fill:url(#SVGID_12_);} .st12{fill:url(#SVGID_13_);} .st13{fill:url(#SVGID_14_);} .st14{fill:url(#SVGID_15_);} .st15{fill:url(#SVGID_16_);} .st16{fill:url(#SVGID_17_);} .st17{fill:url(#SVGID_18_);} .st18{fill:url(#SVGID_19_);} .st19{fill:url(#SVGID_20_);} </style> <g> <linearGradient id="SVGID_1_" gradientUnits="userSpaceOnUse" x1="0" y1="60" x2="120" y2="60"> <stop offset="0" style="stop-color:#7741B3"/> <stop offset="1" style="stop-color:#5A319B"/> </linearGradient> <path class="st0" d="M60,120C26.9,120,0,93.1,0,60S26.9,0,60,0s60,26.9,60,60S93.1,120,60,120z M60,1.6C27.8,1.6,1.6,27.8,1.6,60 s26.2,58.4,58.4,58.4s58.4-26.2,58.4-58.4S92.2,1.6,60,1.6z"/> <linearGradient id="SVGID_2_" gradientUnits="userSpaceOnUse" x1="14.7945" y1="60" x2="105.2055" y2="60"> <stop offset="0" style="stop-color:#7741B3"/> <stop offset="1" style="stop-color:#5A319B"/> </linearGradient> <path class="st1" d="M60,105.2c-24.9,0-45.2-20.3-45.2-45.2c0-24.9,20.3-45.2,45.2-45.2c24.9,0,45.2,20.3,45.2,45.2 C105.2,84.9,84.9,105.2,60,105.2z M60,16.4C36,16.4,16.4,36,16.4,60S36,103.6,60,103.6S103.6,84,103.6,60S84,16.4,60,16.4z"/> <linearGradient id="SVGID_3_" gradientUnits="userSpaceOnUse" x1="29.589" y1="60" x2="90.411" y2="60"> <stop offset="0" style="stop-color:#7741B3"/> <stop offset="1" style="stop-color:#5A319B"/> </linearGradient> <path class="st2" d="M60,90.4c-16.8,0-30.4-13.6-30.4-30.4S43.2,29.6,60,29.6S90.4,43.2,90.4,60S76.8,90.4,60,90.4z M60,31.2 c-15.9,0-28.8,12.9-28.8,28.8S44.1,88.8,60,88.8S88.8,75.9,88.8,60S75.9,31.2,60,31.2z"/> <linearGradient id="SVGID_4_" gradientUnits="userSpaceOnUse" x1="44.3836" y1="60" x2="75.6164" y2="60"> <stop offset="0" style="stop-color:#7741B3"/> <stop offset="1" style="stop-color:#5A319B"/> </linearGradient> <path class="st3" d="M60,75.6c-8.6,0-15.6-7-15.6-15.6s7-15.6,15.6-15.6s15.6,7,15.6,15.6S68.6,75.6,60,75.6z M60,46 c-7.7,0-14,6.3-14,14s6.3,14,14,14s14-6.3,14-14S67.7,46,60,46z"/> </g> </svg>