<?xml version="1.0" encoding="utf-8"?>
<!-- Generator: Adobe Illustrator 22.1.0, SVG Export Plug-In . SVG Version: 6.00 Build 0)  -->
<svg version="1.1" id="Layer_1" xmlns="http://www.w3.org/2000/svg" xmlns:xlink="http://www.w3.org/1999/xlink" x="0px" y="0px"
	 viewBox="0 0 120 120" style="enable-background:new 0 0 120 120;" xml:space="preserve">
<style type="text/css">
	.st0{fill:url(#SVGID_1_);}
	.st1{fill:url(#SVGID_2_);}
	.st2{fill:url(#SVGID_3_);}
	.st3{fill:url(#SVGID_4_);}
	.st4{fill:url(#SVGID_5_);}
	.st5{fill:url(#SVGID_6_);}
	.st6{fill:url(#SVGID_7_);}
	.st7{fill:url(#SVGID_8_);}
	.st8{fill:url(#SVGID_9_);}
	.st9{fill:url(#SVGID_10_);}
	.st10{fill:url(#SVGID_11_);}
	.st11{fill:url(#SVGID_12_);}
	.st12{fill:url(#SVGID_13_);}
	.st13{fill:url(#SVGID_14_);}
	.st14{fill:url(#SVGID_15_);}
	.st15{fill:url(#SVGID_16_);}
	.st16{fill:url(#SVGID_17_);}
	.st17{fill:url(#SVGID_18_);}
	.st18{fill:url(#SVGID_19_);}
	.st19{fill:url(#SVGID_20_);}
</style>
<g>
	<linearGradient id="SVGID_1_" gradientUnits="userSpaceOnUse" x1="43.7037" y1="84.4444" x2="65.9259" y2="84.4444">
		<stop  offset="0" style="stop-color:#7741B3"/>
		<stop  offset="1" style="stop-color:#5A319B"/>
	</linearGradient>
	<rect x="43.7" y="80" class="st0" width="22.2" height="8.9"/>
	<linearGradient id="SVGID_2_" gradientUnits="userSpaceOnUse" x1="43.7037" y1="55.5556" x2="94.8148" y2="55.5556">
		<stop  offset="0" style="stop-color:#7741B3"/>
		<stop  offset="1" style="stop-color:#5A319B"/>
	</linearGradient>
	<path class="st1" d="M43.7,60h51.1v-8.9H43.7V60z M45.2,52.6h48.1v5.9H45.2V52.6z"/>
	<linearGradient id="SVGID_3_" gradientUnits="userSpaceOnUse" x1="43.7037" y1="69.6296" x2="94.8148" y2="69.6296">
		<stop  offset="0" style="stop-color:#7741B3"/>
		<stop  offset="1" style="stop-color:#5A319B"/>
	</linearGradient>
	<path class="st2" d="M43.7,74.1h51.1v-8.9H43.7V74.1z M45.2,66.7h48.1v5.9H45.2V66.7z"/>
	<linearGradient id="SVGID_4_" gradientUnits="userSpaceOnUse" x1="44.0741" y1="35.5556" x2="84.8148" y2="35.5556">
		<stop  offset="0" style="stop-color:#7741B3"/>
		<stop  offset="1" style="stop-color:#5A319B"/>
	</linearGradient>
	<rect x="44.1" y="34.8" class="st3" width="40.7" height="1.5"/>
	<linearGradient id="SVGID_5_" gradientUnits="userSpaceOnUse" x1="44.0741" y1="40.7407" x2="69.2593" y2="40.7407">
		<stop  offset="0" style="stop-color:#7741B3"/>
		<stop  offset="1" style="stop-color:#5A319B"/>
	</linearGradient>
	<rect x="44.1" y="40" class="st4" width="25.2" height="1.5"/>
	<linearGradient id="SVGID_6_" gradientUnits="userSpaceOnUse" x1="0" y1="60" x2="120" y2="60">
		<stop  offset="0" style="stop-color:#7741B3"/>
		<stop  offset="1" style="stop-color:#5A319B"/>
	</linearGradient>
	<path class="st5" d="M0,14.8v90.4h120V14.8H0z M118.5,16.3v9.6H1.5v-9.6H118.5z M1.5,27.4h27.4v76.3H1.5V27.4z M30.4,103.7V27.4
		h88.1v76.3H30.4z"/>
	<linearGradient id="SVGID_7_" gradientUnits="userSpaceOnUse" x1="5.1407" y1="21.3481" x2="8.8444" y2="21.3481">
		<stop  offset="0" style="stop-color:#7741B3"/>
		<stop  offset="1" style="stop-color:#5A319B"/>
	</linearGradient>
	<circle class="st6" cx="7" cy="21.3" r="1.9"/>
	<linearGradient id="SVGID_8_" gradientUnits="userSpaceOnUse" x1="11.8074" y1="21.3481" x2="15.5111" y2="21.3481">
		<stop  offset="0" style="stop-color:#7741B3"/>
		<stop  offset="1" style="stop-color:#5A319B"/>
	</linearGradient>
	<circle class="st7" cx="13.7" cy="21.3" r="1.9"/>
	<linearGradient id="SVGID_9_" gradientUnits="userSpaceOnUse" x1="18.4741" y1="21.3481" x2="22.1778" y2="21.3481">
		<stop  offset="0" style="stop-color:#7741B3"/>
		<stop  offset="1" style="stop-color:#5A319B"/>
	</linearGradient>
	<circle class="st8" cx="20.3" cy="21.3" r="1.9"/>
	<linearGradient id="SVGID_10_" gradientUnits="userSpaceOnUse" x1="6.2963" y1="54.8148" x2="19.6296" y2="54.8148">
		<stop  offset="0" style="stop-color:#7741B3"/>
		<stop  offset="1" style="stop-color:#5A319B"/>
	</linearGradient>
	<rect x="6.3" y="54.1" class="st9" width="13.3" height="1.5"/>
	<linearGradient id="SVGID_11_" gradientUnits="userSpaceOnUse" x1="6.2963" y1="61.4815" x2="24.8148" y2="61.4815">
		<stop  offset="0" style="stop-color:#7741B3"/>
		<stop  offset="1" style="stop-color:#5A319B"/>
	</linearGradient>
	<rect x="6.3" y="60.7" class="st10" width="18.5" height="1.5"/>
	<linearGradient id="SVGID_12_" gradientUnits="userSpaceOnUse" x1="6.2963" y1="68.1481" x2="21.1111" y2="68.1481">
		<stop  offset="0" style="stop-color:#7741B3"/>
		<stop  offset="1" style="stop-color:#5A319B"/>
	</linearGradient>
	<rect x="6.3" y="67.4" class="st11" width="14.8" height="1.5"/>
	<linearGradient id="SVGID_13_" gradientUnits="userSpaceOnUse" x1="6.2963" y1="74.8148" x2="17.4074" y2="74.8148">
		<stop  offset="0" style="stop-color:#7741B3"/>
		<stop  offset="1" style="stop-color:#5A319B"/>
	</linearGradient>
	<rect x="6.3" y="74.1" class="st12" width="11.1" height="1.5"/>
	<linearGradient id="SVGID_14_" gradientUnits="userSpaceOnUse" x1="6.2963" y1="81.4815" x2="21.1111" y2="81.4815">
		<stop  offset="0" style="stop-color:#7741B3"/>
		<stop  offset="1" style="stop-color:#5A319B"/>
	</linearGradient>
	<rect x="6.3" y="80.7" class="st13" width="14.8" height="1.5"/>
	<linearGradient id="SVGID_15_" gradientUnits="userSpaceOnUse" x1="5.5556" y1="40.563" x2="17.4074" y2="40.563">
		<stop  offset="0" style="stop-color:#7741B3"/>
		<stop  offset="1" style="stop-color:#5A319B"/>
	</linearGradient>
	<path class="st14" d="M11.5,46.5c3.3,0,5.9-2.7,5.9-5.9s-2.7-5.9-5.9-5.9s-5.9,2.7-5.9,5.9S8.2,46.5,11.5,46.5z M11.5,36.1
		c2.5,0,4.4,2,4.4,4.4s-2,4.4-4.4,4.4S7,43,7,40.6S9,36.1,11.5,36.1z"/>
</g>
</svg>
