<?xml version="1.0" encoding="utf-8"?>
<!-- Generator: Adobe Illustrator 22.1.0, SVG Export Plug-In . SVG Version: 6.00 Build 0)  -->
<svg version="1.1" id="Layer_1" xmlns="http://www.w3.org/2000/svg" xmlns:xlink="http://www.w3.org/1999/xlink" x="0px" y="0px"
	 viewBox="0 0 120 120" style="enable-background:new 0 0 120 120;" xml:space="preserve">
<style type="text/css">
	.st0{fill:url(#SVGID_1_);}
	.st1{fill:url(#SVGID_2_);}
	.st2{fill:url(#SVGID_3_);}
	.st3{fill:url(#SVGID_4_);}
	.st4{fill:url(#SVGID_5_);}
	.st5{fill:url(#SVGID_6_);}
	.st6{fill:url(#SVGID_7_);}
	.st7{fill:url(#SVGID_8_);}
	.st8{fill:url(#SVGID_9_);}
	.st9{fill:url(#SVGID_10_);}
	.st10{fill:url(#SVGID_11_);}
	.st11{fill:url(#SVGID_12_);}
	.st12{fill:url(#SVGID_13_);}
	.st13{fill:url(#SVGID_14_);}
	.st14{fill:url(#SVGID_15_);}
	.st15{fill:url(#SVGID_16_);}
	.st16{fill:url(#SVGID_17_);}
	.st17{fill:url(#SVGID_18_);}
	.st18{fill:url(#SVGID_19_);}
	.st19{fill:url(#SVGID_20_);}
</style>
<g>
	<linearGradient id="SVGID_1_" gradientUnits="userSpaceOnUse" x1="4.873" y1="60" x2="115.127" y2="60">
		<stop  offset="0" style="stop-color:#7741B3"/>
		<stop  offset="1" style="stop-color:#5A319B"/>
	</linearGradient>
	<path class="st0" d="M114.9,8l-7.8-7.7c-0.3-0.3-0.7-0.3-1,0c0,0,0,0,0,0l-6.3,6.3l0,0L59.6,46.8c0,0.1-0.1,0.1-0.1,0.2l0,0
		l-6.1,13.8c-0.2,0.4,0,0.8,0.4,0.9c0.1,0,0.2,0.1,0.3,0.1c0.1,0,0.2,0,0.3,0l13.9-6.1c0.1,0,0.1-0.1,0.2-0.1l0,0l0,0l40.2-40.3l0,0
		l6.3-6.3C115.2,8.7,115.2,8.2,114.9,8C114.9,8,114.9,8,114.9,8z M108.1,13.7L101.4,7l5.3-5.2l6.7,6.7L108.1,13.7z M100.4,8l6.7,6.7
		L67.9,53.9l-6.7-6.7L100.4,8z M60.4,48.5l3.1,3.1l1.1,1.1l2,2l-11.2,4.9L60.4,48.5z M92.1,50.6v68.7c0,0.4-0.3,0.7-0.7,0.7H5.6
		c-0.4,0-0.7-0.3-0.7-0.7V14.1c0-0.4,0.3-0.7,0.7-0.7h63.8c0.4,0,0.7,0.3,0.7,0.7s-0.3,0.7-0.7,0.7H6.3v103.7h84.4v-68
		c0-0.4,0.3-0.7,0.7-0.7S92.1,50.2,92.1,50.6L92.1,50.6z"/>
</g>
</svg>
