<?xml version="1.0" encoding="utf-8"?>
<!-- Generator: Adobe Illustrator 22.1.0, SVG Export Plug-In . SVG Version: 6.00 Build 0)  -->
<svg version="1.1" id="Layer_1" xmlns="http://www.w3.org/2000/svg" xmlns:xlink="http://www.w3.org/1999/xlink" x="0px" y="0px"
	 viewBox="0 0 612.7 80" style="enable-background:new 0 0 612.7 80;" xml:space="preserve">
<style type="text/css">
	.st0{fill:#FFFFFF;}
</style>
<g>
	<path class="st0" d="M0,78.5v-77h33.2c19,0,27.5,10.4,27.5,23.3c0,7.8-6.3,16.2-13.5,18.1V43c4.6,1.6,9.6,7.8,9.6,15.1
		c0,11.2-9.6,20.3-23.3,20.3H0V78.5z M18.5,17v17.4h12.9c5.8,0,10-3.3,10-8.7c0-5.1-3.8-8.7-10-8.7H18.5z M18.5,48.5V63h11.1
		c4.9,0,8.6-3.1,8.6-7.3s-3.6-7.3-8.6-7.3L18.5,48.5L18.5,48.5z"/>
	<path class="st0" d="M141.2,58.9C137.6,71,125.9,80,111.2,80c-16.7,0-28.8-10.9-28.8-22.9c0-13.5,10.7-18.6,19.9-22.1
		c11-4.2,20-5.7,20-11.9c0-3.7-3.1-6.8-9.7-6.8C104.5,16.4,99,22.2,97,28l-17.7-4.7C84.4,8.9,95.8,0,111.9,0c17.9,0,30,10,30,24.1
		c0,13.2-12,19.7-23.4,23.8c-9.3,3.4-17,5.3-17,10.3c0,3.1,3.2,5.8,8.7,5.8s11.4-3.2,13.3-10L141.2,58.9z"/>
	<path class="st0" d="M236.5,59.6c-6.8,12.3-19.8,20.4-35,20.4c-22.1,0-39.9-16.8-39.9-40s17.8-40,39.9-40c16.2,0,29.9,9,36.3,22.6
		l-18.7,4.8c-3.2-5.3-10.2-9-17.6-9c-12,0-20.7,8.2-20.7,21.5c0,12.6,7.9,21.8,20.7,21.8c6,0,12.6-2.7,16.2-7.1L236.5,59.6z"/>
	<path class="st0" d="M257.1,40c0-23.2,17.8-40,39.9-40s40,16.8,40,40s-17.9,40-40,40S257.1,63.2,257.1,40z M276.4,40
		c0,13,8.2,21.8,20.7,21.8S317.9,53,317.9,40c0-12.9-8.2-21.8-20.8-21.8C284.6,18.2,276.4,27.1,276.4,40z"/>
	<path class="st0" d="M362.6,49.1V31.9h96.7v17.3L362.6,49.1L362.6,49.1z"/>
	<path class="st0" d="M508.1,1.5v76.9h-18.5V1.5H508.1z"/>
	<path class="st0" d="M532.8,40c0-23.2,17.8-40,39.9-40c22.1,0,40,16.8,40,40s-17.9,40-40,40C550.7,80,532.8,63.2,532.8,40z
		 M552.1,40c0,13,8.2,21.8,20.7,21.8S593.6,53,593.6,40c0-12.9-8.2-21.8-20.8-21.8C560.3,18.2,552.1,27.1,552.1,40z"/>
</g>
</svg>
