<?xml version="1.0" encoding="UTF-8"?>
<svg width="400px" height="285px" viewBox="0 0 400 285" version="1.1" xmlns="http://www.w3.org/2000/svg" xmlns:xlink="http://www.w3.org/1999/xlink">
    <!-- Generator: Sketch 50.2 (55047) - http://www.bohemiancoding.com/sketch -->
    <title>celebration</title>
    <desc>Created with Sketch.</desc>
    <defs></defs>
    <g id="celebration" stroke="none" stroke-width="1" fill="none" fill-rule="evenodd">
        <g id="Group-64" transform="translate(8.000000, 9.000000)">
            <path d="M289.6681,121.8588 L152.0551,172.8858 C149.3031,173.9058 146.3111,172.1268 145.8941,169.2208 L131.9331,71.8348 C131.3171,67.5398 133.7821,63.3978 137.8491,61.8898 L266.6261,14.1398 C272.1301,12.0978 278.1141,15.6578 278.9471,21.4698 L292.6261,116.8868 C292.9341,119.0338 291.7021,121.1048 289.6681,121.8588" id="Fill-2" fill="#6A7D88"></path>
            <path d="M280.0403,114.01 L156.9013,159.67 C154.6133,160.519 152.1253,159.039 151.7793,156.623 L139.7353,72.608 C139.4793,70.824 140.5033,69.102 142.1943,68.475 L265.3333,22.815 C267.6213,21.966 270.1093,23.446 270.4553,25.862 L282.4993,109.877 C282.7553,111.661 281.7313,113.383 280.0403,114.01" id="Fill-4" fill="#FFFFFF"></path>
            <path d="M273.8436,102.3987 L157.4636,145.5527 C157.0056,145.7227 156.5066,145.4257 156.4366,144.9417 L146.2786,74.0817 C146.2276,73.7237 146.4326,73.3787 146.7716,73.2527 L263.1516,30.0997 C263.6106,29.9297 264.1086,30.2257 264.1786,30.7107 L274.3366,101.5697 C274.3876,101.9277 274.1826,102.2727 273.8436,102.3987" id="Fill-6" fill="#E5EEEC"></path>
            <path d="M289.6331,121.8717 L152.0551,172.8857 C150.4451,173.4827 148.6371,173.1347 147.3631,171.9827 L95.5871,125.1367 C93.0231,122.8177 93.8341,118.6047 97.0761,117.4027 L234.6541,66.3887 C236.2641,65.7917 238.0721,66.1397 239.3461,67.2917 L291.1221,114.1377 C293.6861,116.4567 292.8751,120.6697 289.6331,121.8717" id="Fill-8" fill="#A2B6BD"></path>
            <path d="M347.178,209.5572 L293.552,176.6752 C292.685,176.1432 292.413,175.0092 292.945,174.1422 L325.827,120.5162 C326.359,119.6492 327.493,119.3772 328.36,119.9092 L381.986,152.7912 C382.853,153.3232 383.125,154.4572 382.593,155.3242 L349.711,208.9502 C349.179,209.8172 348.045,210.0892 347.178,209.5572" id="Fill-16" fill="#E5EEEC"></path>
            <polygon id="Fill-18" fill="#FFFFFF" points="346.5773 201.4664 301.0353 173.5414 328.9603 128.0004 374.5023 155.9244"></polygon>
            <path d="M308.9465,160.6403 L326.9025,156.9733 C328.3515,156.6773 329.8095,157.4363 330.3995,158.7923 L334.8665,169.0643 C335.4075,170.3093 336.6885,171.0633 338.0395,170.9323 L367.0265,168.1173 L346.5775,201.4663 L301.0355,173.5413 L308.9465,160.6403 Z" id="Fill-20" fill="#66BE66"></path>
            <path d="M359.7949,161.4193 C357.8579,164.5793 353.7249,165.5703 350.5659,163.6323 C347.4059,161.6953 346.4149,157.5633 348.3529,154.4033 C350.2899,151.2433 354.4219,150.2523 357.5819,152.1903 C360.7419,154.1273 361.7319,158.2593 359.7949,161.4193" id="Fill-22" fill="#FCA356"></path>
            <path d="M61.8961,47.8858 C63.6781,50.8038 62.7571,54.6148 59.8391,56.3968 C56.9211,58.1788 53.1101,57.2578 51.3281,54.3388 C49.5461,51.4208 50.4671,47.6108 53.3851,45.8288 C56.3041,44.0468 60.1141,44.9678 61.8961,47.8858" id="Fill-32" fill="#FFFFFF"></path>
            <path d="M76.2661,66.0419 C77.6501,65.1969 78.0761,63.3799 77.2141,62.0069 C77.1581,61.9179 77.1141,61.8469 77.0841,61.7989 C73.6581,56.1879 66.3331,54.4179 60.7221,57.8439 C55.1121,61.2699 53.3421,68.5949 56.7681,74.2049 C56.7961,74.2509 56.8361,74.3179 56.8841,74.4009 C57.7081,75.8049 59.5261,76.2639 60.9151,75.4159 L76.2661,66.0419 Z" id="Fill-38" fill="#FFFFFF"></path>
            <path d="M82.2437,162.1672 L20.1257,182.0852 L19.4507,179.9812 C18.9867,178.5362 19.7837,176.9882 21.2287,176.5252 L78.1127,158.2852 C79.5577,157.8212 81.1057,158.6172 81.5687,160.0632 L82.2437,162.1672 Z" id="Fill-44" fill="#66BF65"></path>
            <path d="M91.9956,201.5819 L35.1126,219.8219 C33.6666,220.2849 32.1186,219.4889 31.6556,218.0439 L19.9986,181.6919 L82.1176,161.7729 L93.7736,198.1249 C94.2376,199.5709 93.4416,201.1179 91.9956,201.5819" id="Fill-46" fill="#E5EEEC"></path>
            <path d="M56.1746,193.3634 L51.8956,180.0194 C44.5126,182.3874 40.4376,190.2754 42.7676,197.6624 C42.7706,197.6734 42.7736,197.6844 42.7766,197.6954 C42.7806,197.7064 42.7826,197.7174 42.7866,197.7284 C45.1866,205.0924 53.0906,209.1404 60.4746,206.7724 C67.8796,204.3974 71.9586,196.4694 69.5836,189.0634 L56.1746,193.3634 Z" id="Fill-48" fill="#66BE66"></path>
            <path d="M71.8463,184.7711 C69.4713,177.3651 61.5433,173.2871 54.1373,175.6621 L58.4373,189.0711 L71.8463,184.7711 Z" id="Fill-50" fill="#FCA356"></path>
            <polygon id="Fill-58" fill="#575DEC" points="293.5676 212.9675 298.0296 226.9405 283.6976 223.8185"></polygon>
            <polygon id="Fill-60" fill="#FCA356" points="10.6711 157.0655 0.3591 146.6345 14.5491 142.9195"></polygon>
            <polygon id="Fill-62" fill="#FF43E9" points="337.0135 71.6796 351.6405 70.5866 345.2735 83.8006"></polygon>
            <g id="Group" transform="translate(263.000000, 0.000000)">
                <path d="M52.7455663,1.50605014 L2.36222479,0.407876034 C1.64069436,0.392309133 1.04295256,0.984558959 1.02790643,1.73106262 L0.153862931,44.650424 C0.14839161,44.9030323 0.424009395,45.0530406 0.622344774,44.9065703 L9.13503602,38.6189574 L51.9706905,39.5529715 C52.6922209,39.5685384 53.2899627,38.9762886 53.3050088,38.2290773 L54.0251714,2.88655123 C54.0402176,2.14004757 53.4670967,1.52161705 52.7455663,1.50605014" id="Fill-10" fill="#575DEC"></path>
                <path d="M27.2644248,13.9604934 C27.0465754,13.5883661 25.0587005,10.7674769 22.0610032,10.7334337 C16.1972259,10.6665212 13.2006633,17.963503 18.616261,24.4821869 C21.9203089,28.4593706 27.2644248,30.5453965 27.2644248,30.5453965 C27.2644248,30.5453965 32.6085406,28.4593706 35.9125885,24.4821869 C41.3293208,17.963503 38.3316236,10.6665212 32.4689809,10.7334337 C29.4712836,10.7674769 27.4822741,13.5883661 27.2644248,13.9604934 Z" id="Fill-52" fill="#FFFFFF"></path>
            </g>
        </g>
        <g id="sidebar" transform="translate(41.000000, 30.000000)">
            <rect id="Rectangle" fill="#24292E" x="0" y="0" width="38" height="120" rx="3"></rect>
            <path d="M20,89 C15.032,89 11,93.032 11,98 C11,102.968 15.032,107 20,107 C24.968,107 29,102.968 29,98 C29,93.032 24.968,89 20,89 Z M19.1,105.2 C15.545,104.746296 12.8,101.635185 12.8,97.8574074 C12.8,97.2833333 12.872,96.737037 12.989,96.2 L17.3,100.635185 L17.3,101.561111 C17.3,102.57963 18.11,103.412963 19.1,103.412963 L19.1,105.2 Z M25.31,103.4 C25.076,102.659609 24.41,102.129453 23.6,102.129453 L22.7,102.129453 L22.7,99.3872656 C22.7,98.8845312 22.295,98.4732031 21.8,98.4732031 L16.4,98.4732031 L16.4,96.6450781 L18.2,96.6450781 C18.695,96.6450781 19.1,96.23375 19.1,95.7310156 L19.1,93.9028906 L20.9,93.9028906 C21.89,93.9028906 22.7,93.0802344 22.7,92.0747656 L22.7,91.7 C25.337,92.7877344 27.2,95.4110937 27.2,98.4732031 C27.2,100.374453 26.48,102.102031 25.31,103.4 Z" id="Shape" fill="#FFFFFF" fill-rule="nonzero"></path>
            <path d="M25.3139842,58.2562905 L16.6174142,49.317312 C16.2058047,48.8942293 15.5408971,48.8942293 15.1292876,49.317312 C14.7176781,49.7403948 14.7176781,50.4238361 15.1292876,50.8469188 L16.9023747,52.669429 L11.4670185,58.2562905 C10.8443272,58.8963387 10.8443272,59.9269248 11.4670185,60.5561248 L17.2717678,66.5226759 C17.5778364,66.8372759 17.9894459,67 18.3905013,67 C18.7915567,67 19.2031662,66.8372759 19.5092348,66.5226759 L25.3139842,60.5561248 C25.9366755,59.9269248 25.9366755,58.8963387 25.3139842,58.2562905 Z M13.3350923,59.4062076 L18.3905013,54.209884 L23.4459103,59.4062076 L13.3350923,59.4062076 Z M27.8891821,61.0334488 C27.8891821,61.0334488 25.7783641,63.3875245 25.7783641,64.830345 C25.7783641,66.0236553 26.7282322,67 27.8891821,67 C29.0501319,67 30,66.0236553 30,64.830345 C30,63.3875245 27.8891821,61.0334488 27.8891821,61.0334488 Z" id="Shape" fill="#FFFFFF" fill-rule="nonzero"></path>
            <path d="M11,23.8537703 L11,26.5556173 C11,26.8044716 11.1955284,27 11.4443827,27 L14.1462297,27 C14.2617692,27 14.3773087,26.9555617 14.4572976,26.8666852 L24.1626163,17.1702541 L20.8297459,13.8373837 L11.1333148,23.5338147 C11.0444383,23.6226913 11,23.7293431 11,23.8537703 Z M26.7400361,14.5928343 C27.0866546,14.2462158 27.0866546,13.6862936 26.7400361,13.339675 L24.660325,11.2599639 C24.3137064,10.9133454 23.7537842,10.9133454 23.4071657,11.2599639 L21.7807249,12.8864047 L25.1135953,16.2192751 L26.7400361,14.5928343 Z" id="Shape" fill="#FFFFFF" fill-rule="nonzero"></path>
        </g>
        <g id="colors" transform="translate(231.000000, 226.500000) rotate(-36.000000) translate(-231.000000, -226.500000) translate(167.000000, 209.000000)">
            <rect id="Rectangle-4" fill="#24292E" x="0" y="0" width="128" height="35" rx="3"></rect>
            <path d="M20,11 C16.1344444,11 13,14.1344444 13,18 C13,21.8655556 16.1344444,25 20,25 C20.6455556,25 21.1666667,24.4788889 21.1666667,23.8333333 C21.1666667,23.53 21.05,23.2577778 20.8633333,23.0477778 C20.6844444,22.8455556 20.5677778,22.5733333 20.5677778,22.2777778 C20.5677778,21.6322222 21.0888889,21.1111111 21.7344444,21.1111111 L23.1111111,21.1111111 C25.2577778,21.1111111 27,19.3688889 27,17.2222222 C27,13.7844444 23.8655556,11 20,11 Z M15.7222222,18 C15.0766667,18 14.5555556,17.4788889 14.5555556,16.8333333 C14.5555556,16.1877778 15.0766667,15.6666667 15.7222222,15.6666667 C16.3677778,15.6666667 16.8888889,16.1877778 16.8888889,16.8333333 C16.8888889,17.4788889 16.3677778,18 15.7222222,18 Z M18.0555556,14.8888889 C17.41,14.8888889 16.8888889,14.3677778 16.8888889,13.7222222 C16.8888889,13.0766667 17.41,12.5555556 18.0555556,12.5555556 C18.7011111,12.5555556 19.2222222,13.0766667 19.2222222,13.7222222 C19.2222222,14.3677778 18.7011111,14.8888889 18.0555556,14.8888889 Z M21.9444444,14.8888889 C21.2988889,14.8888889 20.7777778,14.3677778 20.7777778,13.7222222 C20.7777778,13.0766667 21.2988889,12.5555556 21.9444444,12.5555556 C22.59,12.5555556 23.1111111,13.0766667 23.1111111,13.7222222 C23.1111111,14.3677778 22.59,14.8888889 21.9444444,14.8888889 Z M24.2777778,18 C23.6322222,18 23.1111111,17.4788889 23.1111111,16.8333333 C23.1111111,16.1877778 23.6322222,15.6666667 24.2777778,15.6666667 C24.9233333,15.6666667 25.4444444,16.1877778 25.4444444,16.8333333 C25.4444444,17.4788889 24.9233333,18 24.2777778,18 Z" id="Shape" fill="#FFFFFF" fill-rule="nonzero"></path>
            <g transform="translate(34.000000, 3.000000)">
                <g id="Group-2" transform="translate(70.434793, 14.476329) rotate(45.000000) translate(-70.434793, -14.476329) translate(60.434793, 4.476329)">
                    <ellipse id="Oval" fill="#EB8A67" cx="9.88066425" cy="9.70537757" rx="9.88066425" ry="9.70537757"></ellipse>
                    <path d="M9.88066425,19.4107551 C9.88066425,16.343646 9.88066425,4.02454986 9.88066425,0 C4.42372407,9.28327758e-16 0,4.34524555 0,9.70537757 C0,15.0655096 4.42372407,19.4107551 9.88066425,19.4107551 Z" id="Oval-Copy" fill="#D16C48"></path>
                </g>
                <g id="Group-2-Copy" transform="translate(42.605352, 14.763591) rotate(45.000000) translate(-42.605352, -14.763591) translate(32.605352, 4.763591)">
                    <ellipse id="Oval" fill="#6C63FF" cx="9.88066425" cy="9.70537757" rx="9.88066425" ry="9.70537757"></ellipse>
                    <path d="M9.88066425,19.4107551 C9.88066425,16.343646 9.88066425,4.02454986 9.88066425,0 C4.42372407,9.28327758e-16 0,4.34524555 0,9.70537757 C0,15.0655096 4.42372407,19.4107551 9.88066425,19.4107551 Z" id="Oval-Copy" fill="#5148DD"></path>
                </g>
                <g id="Group-2-Copy-2" transform="translate(14.483462, 14.763591) rotate(45.000000) translate(-14.483462, -14.763591) translate(4.483462, 4.763591)">
                    <ellipse id="Oval" fill="#22BC66" cx="9.88066425" cy="9.70537757" rx="9.88066425" ry="9.70537757"></ellipse>
                    <path d="M9.88066425,19.4107551 C9.88066425,16.343646 9.88066425,4.02454986 9.88066425,0 C4.42372407,9.28327758e-16 0,4.34524555 0,9.70537757 C0,15.0655096 4.42372407,19.4107551 9.88066425,19.4107551 Z" id="Oval-Copy" fill="#159C51"></path>
                </g>
            </g>
        </g>
    </g>
</svg>